<?xml version="1.0" encoding="UTF-8" standalone="no"?>
<svg
   width="12in"
   height="6in"
   viewBox="0 0 12 6"
   version="1.1"
   preserveAspectRatio="xMidYMid"
   id="svg1"
   sodipodi:docname="3_2_guides_sheet_1_v2.svg"
   inkscape:version="1.3.2 (091e20e, 2023-11-25)"
   xmlns:inkscape="http://www.inkscape.org/namespaces/inkscape"
   xmlns:sodipodi="http://sodipodi.sourceforge.net/DTD/sodipodi-0.dtd"
   xmlns="http://www.w3.org/2000/svg"
   xmlns:svg="http://www.w3.org/2000/svg">
  <defs
     id="defs1" />
  <sodipodi:namedview
     id="namedview1"
     pagecolor="#ffffff"
     bordercolor="#000000"
     borderopacity="0.25"
     inkscape:showpageshadow="2"
     inkscape:pageopacity="0.0"
     inkscape:pagecheckerboard="0"
     inkscape:deskcolor="#d1d1d1"
     inkscape:document-units="in"
     inkscape:zoom="0.4180936"
     inkscape:cx="618.2826"
     inkscape:cy="162.643"
     inkscape:window-width="1440"
     inkscape:window-height="847"
     inkscape:window-x="0"
     inkscape:window-y="25"
     inkscape:window-maximized="0"
     inkscape:current-layer="svg1"
     showguides="true">
    <sodipodi:guide
       position="2.0562246,4.7698695"
       orientation="0,-1"
       id="guide1"
       inkscape:locked="false" />
    <sodipodi:guide
       position="2.1896014,0.4573552"
       orientation="0,-1"
       id="guide2"
       inkscape:locked="false" />
    <sodipodi:guide
       position="3.7321927,3.6895717"
       orientation="1,0"
       id="guide4"
       inkscape:locked="false" />
    <sodipodi:guide
       position="5.1540026,3.4966479"
       orientation="1,0"
       id="guide5"
       inkscape:locked="false" />
    <sodipodi:guide
       position="5.9816075,3.4101817"
       orientation="1,0"
       id="guide6"
       inkscape:locked="false" />
    <sodipodi:guide
       position="4.5093931,-0.30335514"
       orientation="0,-1"
       id="guide7"
       inkscape:locked="false" />
    <sodipodi:guide
       position="5.0359833,-0.43685691"
       orientation="0,-1"
       id="guide8"
       inkscape:locked="false" />
    <sodipodi:guide
       position="1.4877765,5.0566926"
       orientation="1,0"
       id="guide9"
       inkscape:locked="false" />
    <sodipodi:guide
       position="2.3776302,5.1402154"
       orientation="0,-1"
       id="guide10"
       inkscape:locked="false" />
    <sodipodi:guide
       position="5.5599894,8.8068099"
       orientation="0,-1"
       id="guide11"
       inkscape:locked="false" />
  </sodipodi:namedview>
  <g
     id="svgGroup"
     stroke-linecap="round"
     fill-rule="evenodd"
     font-size="12px"
     stroke="#000"
     stroke-width="0.25mm"
     fill="none"
     style="fill:none;stroke:#000000;stroke-width:0.25mm"
     transform="rotate(-90,3.6338653,2.4522626)">
    <path
       d="m 0.2521952,5.6821962 v 5.0000008 h 1.916 V 9.4801962 h -0.204 v -0.826 h 0.204 v -0.826 h -0.204 v -0.826 h 0.204 v -0.826 -0.494 z"
       id="side0_outsideCutPath"
       stroke="#FF0000"
       stroke-width="0.1"
       style="stroke:#ff0000;stroke-width:0.1"
       vector-effect="non-scaling-stroke"
       sodipodi:nodetypes="cccccccccccccc" />
    <path
       d="m 2.6578459,5.6815892 v 1.32 h -0.204 v 0.826 h 0.204 v 0.826 h -0.204 v 0.826 h 0.204 v 0.8259998 0.376 h 1.916 V 9.4795892 h -0.204 v -0.826 h 0.204 v -0.826 h -0.204 v -0.826 h 0.204 v -0.826 -0.494 z"
       id="side2_outsideCutPath"
       stroke="#FF0000"
       stroke-width="0.1"
       style="stroke:#ff0000;stroke-width:0.1"
       vector-effect="non-scaling-stroke"
       sodipodi:nodetypes="ccccccccccccccccccccccc" />
    <path
       d="M 0.48544521,5.2558526 H 1.8054452 v 0.204 h 0.826 v -0.204 h 0.826 v 0.204 h 0.826 v -0.204 h 0.826 0.376 v -1.916 h -4.50599999 -0.494 z"
       id="side4_outsideCutPath"
       stroke="#FF0000"
       stroke-width="0.1"
       style="stroke:#ff0000;stroke-width:0.1"
       vector-effect="non-scaling-stroke"
       sodipodi:nodetypes="ccccccccccccccc" />
    <path
       d="m 2.2596181,-0.66102528 -0.7983239,0.21425319 -0.030406,-0.1138443 -0.55932141,0.14919972 -0.1491994,0.55932135 0.1138442,0.0304056 -0.21425327,0.7983234 -0.45316424,-0.0201235 -0.0202569,-0.5698126 C 0.65199128,-1.1535714 2.1827501,-1.1368749 2.1827501,-1.1368749 Z"
       id="bottom_outsideCutPath"
       stroke="#FF0000"
       stroke-width="0.1"
       style="stroke:#ff0000;stroke-width:0.1"
       vector-effect="non-scaling-stroke"
       sodipodi:nodetypes="ccccccccccc" />
  </g>
  <path
     d="M 3.5215854,1.6117332 2.9373434,2.1964439 2.8540894,2.1130549 2.4443025,2.5219263 2.5947525,3.0809127 2.7085476,3.0503227 2.9221604,3.848818 2.8083659,3.879408 2.95785,4.438136 3.5171211,4.587992 3.5476631,4.474013 4.3455177,4.687798 4.231805,5.110329 c 0,0 -1.7391488,0.02399 -2.0642707,-1.518899 C 1.8334033,2.0057907 3.2170927,1.2380697 3.2170927,1.2380697 Z"
     id="bottom_outsideCutPath-70"
     stroke="#FF0000"
     stroke-width="0.1"
     style="fill:none;stroke:#ff0000;stroke-width:0.1"
     vector-effect="non-scaling-stroke"
     sodipodi:nodetypes="cccccccccccccscc" />
  <path
     d="M 3.0570819,3.6568549 3.6413238,3.0721448 3.7245788,3.1555338 4.1343658,2.7466619 3.9839157,2.1876758 3.8701204,2.2182658 3.6565076,1.4197705 3.7703029,1.3891805 3.6208184,0.83045288 3.0615474,0.68059698 3.0310064,0.79457608 2.2331515,0.58079158 2.3468641,0.15825988 c 0,0 1.7391489,-0.023987 2.0642706,1.51889832 0.334131,1.5856396 -1.049558,2.3533606 -1.049558,2.3533606 z m 8.3612411,1.634005 3.31e-4,-0.826575 0.117831,-10e-5 0.0076,0.829035 z m 0.0012,-2.4009648 3.3e-4,-0.8265749 0.117831,-9.84e-5 0.0076,0.8290342 z M 5.8816795,1.0443067 5.0551051,1.043975 l -9.47e-5,-0.11783422 0.8290346,-0.0076 z m 0.00767,4.2025852 -0.8265744,-3.32e-4 -9.51e-5,-0.117835 0.8290343,-0.0076 z m 1.3352558,-2.3569971 3.316e-4,-0.8265744 0.117835,-9.54e-5 0.00764,0.8290346 z m -0.00707,2.3999851 3.311e-4,-0.826576 0.1178359,-9.1e-5 0.00764,0.829034 z"
     id="bottom_outsideCutPath-70-5"
     stroke="#FF0000"
     stroke-width="0.1"
     style="fill:none;stroke:#ff0000;stroke-width:0.1"
     vector-effect="non-scaling-stroke"
     sodipodi:nodetypes="cccccccccccccscccccccccccccccccccccccccccccccc" />
  <path
     d="m 1.9235072,0.55425208 -0.7156684,0.4135741 -0.058835,-0.1020954 -0.50164751,0.28887912 6.475e-4,0.5788785 0.117834,-9.59e-5 -3.316e-4,0.8265742 -0.1178346,9.51e-5 -2.187e-4,0.5783787 0.50142871,0.2894994 0.059,-0.1021898 0.7153371,0.4129998 -0.2191974,0.378704 c 0,0 -1.68609721,-0.426956 -1.60081231,-2.0014164 C 0.19085699,0.49794788 1.7260992,0.11451138 1.7260992,0.11451138 Z"
     id="bottom_outsideCutPath-70-5-7"
     stroke="#FF0000"
     stroke-width="0.1"
     style="fill:none;stroke:#ff0000;stroke-width:0.1"
     vector-effect="non-scaling-stroke"
     sodipodi:nodetypes="cccccccccccccscc" />
  <path
     d="m 2.9044178,5.9035049 -0.413574,-0.715668 0.1020948,-0.05884 -0.2888788,-0.501647 -0.5788786,6.47e-4 9.51e-5,0.117835 -0.82657451,-3.32e-4 -0.09785,-0.442931 0.54515381,-0.167045 c 1.6180898,0.08765 1.9981518,1.570569 1.9981518,1.570569 z"
     id="bottom_outsideCutPath-5"
     stroke="#FF0000"
     stroke-width="0.1"
     style="fill:none;stroke:#ff0000;stroke-width:0.1"
     vector-effect="non-scaling-stroke"
     sodipodi:nodetypes="ccccccccccc" />
</svg>
