<?xml version="1.0" encoding="UTF-8" standalone="no"?>
<svg
   width="6in"
   height="12in"
   viewBox="0 0 5.9999999 12"
   version="1.1"
   preserveAspectRatio="xMidYMid"
   id="svg1"
   sodipodi:docname="3_2_with_guides.svg.2024_01_27_15_39_43.0.svg"
   inkscape:version="1.3.2 (091e20e, 2023-11-25)"
   xmlns:inkscape="http://www.inkscape.org/namespaces/inkscape"
   xmlns:sodipodi="http://sodipodi.sourceforge.net/DTD/sodipodi-0.dtd"
   xmlns="http://www.w3.org/2000/svg"
   xmlns:svg="http://www.w3.org/2000/svg">
  <defs
     id="defs1" />
  <sodipodi:namedview
     id="namedview1"
     pagecolor="#ffffff"
     bordercolor="#000000"
     borderopacity="0.25"
     inkscape:showpageshadow="2"
     inkscape:pageopacity="0.0"
     inkscape:pagecheckerboard="0"
     inkscape:deskcolor="#d1d1d1"
     inkscape:document-units="in"
     inkscape:zoom="1.8743899"
     inkscape:cx="227.54071"
     inkscape:cy="479.08923"
     inkscape:window-width="1440"
     inkscape:window-height="847"
     inkscape:window-x="0"
     inkscape:window-y="25"
     inkscape:window-maximized="0"
     inkscape:current-layer="svg1"
     showguides="true">
    <sodipodi:guide
       position="2.0562246,4.7698695"
       orientation="0,-1"
       id="guide1"
       inkscape:locked="false" />
    <sodipodi:guide
       position="2.1896014,0.4573552"
       orientation="0,-1"
       id="guide2"
       inkscape:locked="false" />
    <sodipodi:guide
       position="3.7321927,3.6895717"
       orientation="1,0"
       id="guide4"
       inkscape:locked="false" />
    <sodipodi:guide
       position="5.1540026,3.4966479"
       orientation="1,0"
       id="guide5"
       inkscape:locked="false" />
    <sodipodi:guide
       position="5.9816075,3.4101817"
       orientation="1,0"
       id="guide6"
       inkscape:locked="false" />
    <sodipodi:guide
       position="4.5093931,-0.30335514"
       orientation="0,-1"
       id="guide7"
       inkscape:locked="false" />
    <sodipodi:guide
       position="5.0359833,-0.43685691"
       orientation="0,-1"
       id="guide8"
       inkscape:locked="false" />
    <sodipodi:guide
       position="1.4877765,5.0566926"
       orientation="1,0"
       id="guide9"
       inkscape:locked="false" />
    <sodipodi:guide
       position="2.3776302,5.1402154"
       orientation="0,-1"
       id="guide10"
       inkscape:locked="false" />
    <sodipodi:guide
       position="5.5599894,8.8068098"
       orientation="0,-1"
       id="guide11"
       inkscape:locked="false" />
  </sodipodi:namedview>
  <g
     id="svgGroup"
     stroke-linecap="round"
     fill-rule="evenodd"
     font-size="12px"
     stroke="#000"
     stroke-width="0.25mm"
     fill="none"
     style="fill:none;stroke:#000000;stroke-width:0.25mm"
     transform="translate(-0.0903872,1.1911839)">
    <path
       d="m 0.58545199,11.21376 v 4.624 0.376 H 2.501452 v -1.202 h -0.204 v -0.826 h 0.204 v -0.826 h -0.204 v -0.826 h 0.204 v -0.826 -0.494 z m 0.54934451,0.658636 0.8265744,3.31e-4 9.53e-5,0.108054 -0.8308203,-0.0025 z"
       id="side3_outsideCutPath"
       stroke="#FF0000"
       stroke-width="0.1"
       style="stroke:#ff0000;stroke-width:0.1"
       vector-effect="non-scaling-stroke"
       sodipodi:nodetypes="cccccccccccccccccccc" />
    <path
       d="m 4.453024,11.1495 v 1.32 h -0.204 v 0.826 h 0.204 v 0.826 h -0.204 v 0.826 h 0.204 v 0.826 0.376 h 1.916 v -4.506 -0.494 z"
       id="side5_outsideCutPath"
       stroke="#FF0000"
       stroke-width="0.1"
       style="stroke:#ff0000;stroke-width:0.1"
       vector-effect="non-scaling-stroke"
       sodipodi:nodetypes="ccccccccccccccc" />
    <path
       d="m 0.2521952,5.6821962 v 5.0000008 h 1.916 V 9.4801962 h -0.204 v -0.826 h 0.204 v -0.826 h -0.204 v -0.826 h 0.204 v -0.826 -0.494 z"
       id="side0_outsideCutPath"
       stroke="#FF0000"
       stroke-width="0.1"
       style="stroke:#ff0000;stroke-width:0.1"
       vector-effect="non-scaling-stroke"
       sodipodi:nodetypes="cccccccccccccc" />
    <path
       d="m 2.6578459,5.6815892 v 1.32 h -0.204 v 0.826 h 0.204 v 0.826 h -0.204 v 0.826 h 0.204 v 0.8259998 0.376 h 1.916 V 9.4795892 h -0.204 v -0.826 h 0.204 v -0.826 h -0.204 v -0.826 h 0.204 v -0.826 -0.494 z"
       id="side2_outsideCutPath"
       stroke="#FF0000"
       stroke-width="0.1"
       style="stroke:#ff0000;stroke-width:0.1"
       vector-effect="non-scaling-stroke"
       sodipodi:nodetypes="ccccccccccccccccccccccc" />
    <path
       d="M 0.48544521,5.2558526 H 1.8054452 v 0.204 h 0.826 v -0.204 h 0.826 v 0.204 h 0.826 v -0.204 h 0.826 0.376 v -1.916 h -4.50599999 -0.494 z"
       id="side4_outsideCutPath"
       stroke="#FF0000"
       stroke-width="0.1"
       style="stroke:#ff0000;stroke-width:0.1"
       vector-effect="non-scaling-stroke"
       sodipodi:nodetypes="ccccccccccccccc" />
    <path
       d="m 2.2596181,-0.66102528 -0.7983239,0.21425319 -0.030406,-0.1138443 -0.55932141,0.14919972 -0.1491994,0.55932135 0.1138442,0.0304056 -0.21425327,0.7983234 -0.45316424,-0.0201235 -0.0202569,-0.5698126 C 0.65199128,-1.1535714 2.1827501,-1.1368749 2.1827501,-1.1368749 Z"
       id="bottom_outsideCutPath"
       stroke="#FF0000"
       stroke-width="0.1"
       style="stroke:#ff0000;stroke-width:0.1"
       vector-effect="non-scaling-stroke"
       sodipodi:nodetypes="ccccccccccc" />
  </g>
  <path
     d="M 4.3840075,3.5311666 3.7992968,2.9469247 3.8826862,2.8636707 3.4738148,2.4538838 2.9148284,2.604334 2.9454185,2.7181288 2.1469232,2.9317416 2.116333,2.8179468 1.5576055,2.9674311 1.4077493,3.526702 1.5217285,3.5572427 1.307944,4.3550974 0.88541223,4.2413848 c 0,0 -0.023987,-1.7391489 1.51889867,-2.0642707 1.5856394,-0.3341309 2.3533604,1.0495586 2.3533604,1.0495586 z"
     id="bottom_outsideCutPath-70"
     stroke="#FF0000"
     stroke-width="0.1"
     style="fill:none;stroke:#ff0000;stroke-width:0.1"
     vector-effect="non-scaling-stroke"
     sodipodi:nodetypes="cccccccccccccscc" />
  <path
     d="M 2.3388853,3.0666631 2.923596,3.650905 2.8402069,3.7341595 3.2490787,4.1439464 3.8080649,3.9934963 3.7774752,3.8797013 4.5759705,3.6660884 4.6065602,3.7798835 5.1652878,3.6303992 5.3151439,3.0711281 5.2011647,3.0405875 5.4149492,2.2427326 5.8374809,2.3564452 c 0,0 0.023987,1.7391489 -1.5188984,2.0642707 C 2.7329428,4.7548469 1.9652216,3.3711577 1.9652216,3.3711577 Z m 4.5666218,10.7822409 0.8265744,-3.31e-4 0.00318,-0.114747 -0.8291379,0.0037 z m -1.7541025,0.493325 0.8265744,-3.31e-4 0.00318,-0.114747 -0.8291379,0.0037 z m -2.245,-0.0054 0.8265744,-3.31e-4 0.00318,-0.114747 -0.8291379,0.0037 z m -2.20152304,-2.908925 0.82657434,3.31e-4 9.5e-5,0.117835 -0.82903456,0.0076 z m 2.40096464,0.0012 0.8265743,3.31e-4 9.5e-5,0.117835 -0.8290345,0.0076 z m 1.8455879,-5.5378425 3.316e-4,-0.8265744 0.1178344,-9.5e-5 0.0076,0.8290346 z m -4.20258519,0.00767 3.316e-4,-0.8265743 0.1178348,-9.5e-5 0.00764,0.8290345 z m 2.35699729,1.3352555 0.8265743,3.316e-4 9.5e-5,0.1178348 -0.8290345,0.00764 z m -2.39998438,-0.00707 0.82657428,3.316e-4 9.5e-5,0.1178348 -0.82903448,0.00764 z"
     id="bottom_outsideCutPath-70-5"
     stroke="#FF0000"
     stroke-width="0.1"
     style="fill:none;stroke:#ff0000;stroke-width:0.1"
     vector-effect="non-scaling-stroke"
     sodipodi:nodetypes="cccccccccccccsccccccccccccccccccccccccccccccccccccccccccccccc" />
  <path
     d="M 5.4414886,1.9330884 5.0279144,1.21742 5.1300099,1.1585853 4.8411309,0.65693791 4.2622522,0.65758528 4.2623477,0.77541988 3.4357734,0.77508829 3.4356779,0.65725366 2.8572992,0.65703495 2.5677994,1.1584637 l 0.1021909,0.059 -0.413,0.7153371 -0.3787035,-0.2191973 c 0,0 0.4269552,-1.68609714 2.001416,-1.60081237 1.6180896,0.087648 2.0015261,1.62289017 2.0015261,1.62289017 z"
     id="bottom_outsideCutPath-70-5-7"
     stroke="#FF0000"
     stroke-width="0.1"
     style="fill:none;stroke:#ff0000;stroke-width:0.1"
     vector-effect="non-scaling-stroke"
     sodipodi:nodetypes="cccccccccccccscc" />
  <path
     d="M 0.09223539,2.9139992 0.80790397,2.500425 0.86673937,2.6025207 1.3683865,2.313642 1.367739,1.7347634 1.2499048,1.7348591 1.2502362,0.90828466 1.6931675,0.81043446 1.8602123,1.3555884 C 1.7725641,2.9736779 0.28964315,3.3537398 0.28964315,3.3537398 Z"
     id="bottom_outsideCutPath-5"
     stroke="#FF0000"
     stroke-width="0.1"
     style="fill:none;stroke:#ff0000;stroke-width:0.1"
     vector-effect="non-scaling-stroke"
     sodipodi:nodetypes="ccccccccccc" />
</svg>
