<?xml version="1.0" encoding="UTF-8" standalone="no"?>
<svg
   width="6.61in"
   height="13.922in"
   viewBox="0 0 6.61 13.922"
   version="1.1"
   preserveAspectRatio="xMidYMid meet"
   id="svg1"
   sodipodi:docname="3_2_sheet2.svg"
   inkscape:version="1.3.2 (091e20e, 2023-11-25)"
   xmlns:inkscape="http://www.inkscape.org/namespaces/inkscape"
   xmlns:sodipodi="http://sodipodi.sourceforge.net/DTD/sodipodi-0.dtd"
   xmlns="http://www.w3.org/2000/svg"
   xmlns:svg="http://www.w3.org/2000/svg">
  <defs
     id="defs1" />
  <sodipodi:namedview
     id="namedview1"
     pagecolor="#ffffff"
     bordercolor="#000000"
     borderopacity="0.25"
     inkscape:showpageshadow="2"
     inkscape:pageopacity="0.0"
     inkscape:pagecheckerboard="0"
     inkscape:deskcolor="#d1d1d1"
     inkscape:document-units="in"
     inkscape:zoom="0.64840472"
     inkscape:cx="121.06636"
     inkscape:cy="510.48364"
     inkscape:window-width="1440"
     inkscape:window-height="847"
     inkscape:window-x="0"
     inkscape:window-y="25"
     inkscape:window-maximized="0"
     inkscape:current-layer="svg1"
     showguides="true"
     showgrid="false" />
  <g
     id="svgGroup"
     stroke-linecap="round"
     fill-rule="evenodd"
     font-size="12px"
     stroke="#000"
     stroke-width="0.25mm"
     fill="none"
     style="fill:none;stroke:#000000;stroke-width:0.25mm"
     transform="translate(-0.0903872,1.1911839)">
    <path
       d="m 1.27625,3.8720238 v 4.624 0.376 h 1.916 v -1.202 h -0.204 v -0.826 h 0.204 v -0.826 h -0.204 v -0.826 h 0.204 v -0.826 -0.494 z m 0.5493445,0.6586359 0.8265744,3.31e-4 9.53e-5,0.1080534 -0.8308203,-0.0025 z"
       id="side3_outsideCutPath"
       stroke="#FF0000"
       stroke-width="0.1"
       style="stroke:#ff0000;stroke-width:0.1"
       vector-effect="non-scaling-stroke"
       sodipodi:nodetypes="cccccccccccccccccccc" />
    <path
       d="m 3.735,11.363 v 0.001 a 0.133,0.133 0 0 1 0.021,0.004 q 0.011,0.004 0.02,0.009 a 0.061,0.061 0 0 1 0.013,0.01 q 0.017,0.019 0.017,0.049 a 0.099,0.099 0 0 1 -0.003,0.029 0.074,0.074 0 0 1 -0.027,0.038 q -0.03,0.023 -0.085,0.023 A 0.277,0.277 0 0 1 3.666,11.525 0.215,0.215 0 0 1 3.647,11.523 0.151,0.151 0 0 1 3.608,11.51 v -0.033 q 0.02,0.01 0.042,0.015 a 0.207,0.207 0 0 0 0.026,0.004 0.168,0.168 0 0 0 0.016,10e-4 0.147,0.147 0 0 0 0.029,-0.003 Q 3.766,11.485 3.77,11.445 A 0.086,0.086 0 0 0 3.771,11.435 0.046,0.046 0 0 0 3.745,11.392 Q 3.725,11.381 3.69,11.38 a 0.257,0.257 0 0 0 -0.006,0 H 3.655 v -0.029 h 0.03 q 0.026,0 0.045,-0.009 A 0.066,0.066 0 0 0 3.741,11.335 0.05,0.05 0 0 0 3.761,11.299 0.069,0.069 0 0 0 3.762,11.292 0.052,0.052 0 0 0 3.759,11.277 0.04,0.04 0 0 0 3.746,11.257 0.052,0.052 0 0 0 3.727,11.247 Q 3.719,11.245 3.71,11.244 a 0.101,0.101 0 0 0 -0.005,0 0.131,0.131 0 0 0 -0.029,0.004 0.118,0.118 0 0 0 -0.008,0.002 Q 3.654,11.254 3.639,11.263 A 0.253,0.253 0 0 0 3.627,11.27 L 3.61,11.246 a 0.142,0.142 0 0 1 0.036,-0.02 0.164,0.164 0 0 1 0.007,-0.003 0.156,0.156 0 0 1 0.051,-0.008 0.155,0.155 0 0 1 0.027,0.002 q 0.015,0.003 0.026,0.008 a 0.076,0.076 0 0 1 0.016,0.01 0.066,0.066 0 0 1 0.024,0.047 0.094,0.094 0 0 1 0,0.009 0.085,0.085 0 0 1 -0.002,0.021 0.063,0.063 0 0 1 -0.014,0.026 0.072,0.072 0 0 1 -0.025,0.018 0.103,0.103 0 0 1 -0.021,0.007 z M 2.804,11.512 V 11.48 a 0.17,0.17 0 0 0 0.035,0.013 0.154,0.154 0 0 0 0.025,0.004 0.132,0.132 0 0 0 0.011,10e-4 q 0.027,0 0.042,-0.009 A 0.03,0.03 0 0 0 2.927,11.48 Q 2.93,11.474 2.931,11.467 a 0.039,0.039 0 0 0 0,-0.004 A 0.027,0.027 0 0 0 2.923,11.443 0.039,0.039 0 0 0 2.92,11.44 0.062,0.062 0 0 0 2.913,11.435 Q 2.9,11.428 2.875,11.418 A 0.517,0.517 0 0 1 2.86,11.412 Q 2.84,11.404 2.83,11.397 A 0.075,0.075 0 0 1 2.82,11.389 0.054,0.054 0 0 1 2.81,11.378 0.047,0.047 0 0 1 2.805,11.362 0.064,0.064 0 0 1 2.804,11.351 0.055,0.055 0 0 1 2.808,11.329 Q 2.813,11.316 2.826,11.307 A 0.079,0.079 0 0 1 2.85,11.296 q 0.01,-0.003 0.023,-0.004 a 0.169,0.169 0 0 1 0.015,-10e-4 q 0.037,0 0.072,0.015 L 2.947,11.334 A 0.215,0.215 0 0 0 2.921,11.325 Q 2.902,11.32 2.886,11.32 a 0.126,0.126 0 0 0 -0.013,0 Q 2.859,11.322 2.85,11.326 a 0.035,0.035 0 0 0 -10e-4,10e-4 0.029,0.029 0 0 0 -0.007,0.006 0.023,0.023 0 0 0 -0.006,0.016 0.03,0.03 0 0 0 0.001,0.007 0.024,0.024 0 0 0 0.004,0.008 0.032,0.032 0 0 0 0.004,0.005 q 0.003,0.002 0.006,0.004 a 0.072,0.072 0 0 0 0.005,0.003 0.1,0.1 0 0 0 0.006,0.003 q 0.01,0.005 0.03,0.012 a 1.029,1.029 0 0 0 0.004,0.002 q 0.031,0.012 0.047,0.023 a 0.059,0.059 0 0 1 0.007,0.007 0.051,0.051 0 0 1 0.014,0.032 0.068,0.068 0 0 1 0,0.005 q 0,0.032 -0.023,0.049 a 0.081,0.081 0 0 1 -0.024,0.012 q -0.018,0.005 -0.042,0.005 -0.046,0 -0.071,-0.014 z m 0.483,0.01 -0.005,-0.03 H 3.28 A 0.077,0.077 0 0 1 3.223,11.525 0.116,0.116 0 0 1 3.209,11.526 0.104,0.104 0 0 1 3.179,11.522 0.079,0.079 0 0 1 3.14,11.496 0.101,0.101 0 0 1 3.122,11.462 Q 3.118,11.447 3.116,11.43 A 0.223,0.223 0 0 1 3.115,11.409 0.204,0.204 0 0 1 3.118,11.375 q 0.003,-0.018 0.009,-0.033 a 0.097,0.097 0 0 1 0.013,-0.02 0.081,0.081 0 0 1 0.058,-0.031 0.116,0.116 0 0 1 0.011,0 0.101,0.101 0 0 1 0.03,0.004 0.078,0.078 0 0 1 0.041,0.029 H 3.282 L 3.281,11.308 3.28,11.292 V 11.2 h 0.035 v 0.322 z m 0.28,-0.129 v 0.022 H 3.41 a 0.138,0.138 0 0 0 0.003,0.023 Q 3.415,11.45 3.42,11.46 a 0.065,0.065 0 0 0 0.011,0.015 0.062,0.062 0 0 0 0.032,0.019 0.095,0.095 0 0 0 0.022,0.002 0.182,0.182 0 0 0 0.068,-0.013 0.208,0.208 0 0 0 0.004,-0.002 v 0.03 A 0.206,0.206 0 0 1 3.538,11.519 0.158,0.158 0 0 1 3.523,11.523 0.144,0.144 0 0 1 3.508,11.525 Q 3.497,11.526 3.483,11.526 A 0.134,0.134 0 0 1 3.45,11.522 0.095,0.095 0 0 1 3.404,11.495 0.101,0.101 0 0 1 3.38,11.451 Q 3.375,11.433 3.375,11.41 a 0.18,0.18 0 0 1 0.003,-0.035 q 0.006,-0.031 0.024,-0.052 a 0.088,0.088 0 0 1 0.064,-0.032 0.122,0.122 0 0 1 0.008,0 q 0.043,0 0.068,0.028 a 0.096,0.096 0 0 1 0.022,0.044 0.14,0.14 0 0 1 0.003,0.03 z M 3.055,11.295 v 0.227 H 3.02 V 11.295 Z M 3.28,11.416 V 11.409 A 0.229,0.229 0 0 0 3.279,11.385 Q 3.276,11.355 3.264,11.34 A 0.05,0.05 0 0 0 3.239,11.323 Q 3.23,11.321 3.22,11.32 a 0.111,0.111 0 0 0 -0.007,0 q -0.03,0 -0.046,0.023 -0.012,0.018 -0.015,0.046 a 0.192,0.192 0 0 0 -0.001,0.021 0.19,0.19 0 0 0 0.001,0.024 q 0.002,0.011 0.005,0.021 a 0.072,0.072 0 0 0 0.01,0.02 0.052,0.052 0 0 0 0.037,0.022 0.077,0.077 0 0 0 0.009,0 q 0.023,0 0.037,-0.007 a 0.046,0.046 0 0 0 0.014,-0.012 0.057,0.057 0 0 0 0.01,-0.017 Q 3.28,11.445 3.28,11.422 a 0.218,0.218 0 0 0 0,-0.006 z M 3.411,11.387 H 3.53 A 0.117,0.117 0 0 0 3.528,11.368 Q 3.527,11.358 3.523,11.35 A 0.053,0.053 0 0 0 3.515,11.337 0.047,0.047 0 0 0 3.487,11.321 0.071,0.071 0 0 0 3.474,11.32 0.068,0.068 0 0 0 3.454,11.322 0.052,0.052 0 0 0 3.43,11.338 q -0.014,0.016 -0.018,0.043 a 0.13,0.13 0 0 0 -10e-4,0.006 z m -0.393,-0.16 a 0.038,0.038 0 0 0 -10e-4,0.007 0.041,0.041 0 0 0 10e-4,0.003 q 0,0.009 0.005,0.014 a 0.019,0.019 0 0 0 0.007,0.004 0.022,0.022 0 0 0 0.008,0.002 0.02,0.02 0 0 0 0.014,-0.006 q 0.006,-0.006 0.006,-0.017 a 0.039,0.039 0 0 0 0,-0.004 Q 3.057,11.221 3.052,11.216 a 0.02,0.02 0 0 0 -0.014,-0.005 0.026,0.026 0 0 0 -0.002,0 0.02,0.02 0 0 0 -0.013,0.005 0.016,0.016 0 0 0 -0.003,0.005 q -10e-4,0.003 -0.002,0.006 z"
       id="side3_labelLayer"
       stroke="#777777"
       fill="#777777"
       style="fill:#777777;stroke:#777777"
       vector-effect="non-scaling-stroke" />
    <path
       d="m 3.52125,3.8720238 v 1.32 h -0.204 v 0.826 h 0.204 v 0.826 h -0.204 v 0.826 h 0.204 v 0.826 0.376 h 1.916 v -4.506 -0.494 z"
       id="side5_outsideCutPath"
       stroke="#FF0000"
       stroke-width="0.1"
       style="stroke:#ff0000;stroke-width:0.1"
       vector-effect="non-scaling-stroke"
       sodipodi:nodetypes="ccccccccccccccc" />
    <path
       d="m 5.861,11.51 v -0.033 q 0.014,0.008 0.033,0.013 a 0.169,0.169 0 0 0 0.003,10e-4 0.179,0.179 0 0 0 0.04,0.006 0.167,0.167 0 0 0 0.003,0 0.124,0.124 0 0 0 0.022,-0.002 Q 5.983,11.491 5.996,11.479 A 0.056,0.056 0 0 0 6.015,11.448 0.085,0.085 0 0 0 6.017,11.43 q 0,-0.058 -0.065,-0.063 A 0.167,0.167 0 0 0 5.939,11.366 0.174,0.174 0 0 0 5.925,11.367 Q 5.909,11.368 5.886,11.372 L 5.868,11.361 5.88,11.219 h 0.15 v 0.032 H 5.909 L 5.902,11.342 Q 5.925,11.337 5.949,11.337 A 0.156,0.156 0 0 1 5.98,11.34 q 0.026,0.005 0.044,0.021 a 0.078,0.078 0 0 1 0.027,0.051 0.111,0.111 0 0 1 10e-4,0.014 0.119,0.119 0 0 1 -0.004,0.031 0.086,0.086 0 0 1 -0.026,0.042 0.1,0.1 0 0 1 -0.041,0.022 q -0.015,0.004 -0.033,0.005 a 0.197,0.197 0 0 1 -0.009,0 0.258,0.258 0 0 1 -0.028,-10e-4 Q 5.88,11.521 5.861,11.51 Z M 5.049,11.512 V 11.48 a 0.17,0.17 0 0 0 0.035,0.013 0.154,0.154 0 0 0 0.025,0.004 0.132,0.132 0 0 0 0.011,10e-4 q 0.027,0 0.042,-0.009 A 0.03,0.03 0 0 0 5.171,11.48 q 0.004,-0.006 0.005,-0.013 a 0.039,0.039 0 0 0 0,-0.004 A 0.027,0.027 0 0 0 5.168,11.443 0.039,0.039 0 0 0 5.165,11.44 0.062,0.062 0 0 0 5.158,11.435 Q 5.145,11.428 5.12,11.418 A 0.517,0.517 0 0 1 5.105,11.412 Q 5.085,11.404 5.075,11.397 A 0.075,0.075 0 0 1 5.064,11.389 0.054,0.054 0 0 1 5.055,11.378 0.047,0.047 0 0 1 5.049,11.362 0.064,0.064 0 0 1 5.048,11.351 0.055,0.055 0 0 1 5.053,11.329 q 0.005,-0.013 0.018,-0.022 a 0.079,0.079 0 0 1 0.024,-0.011 q 0.01,-0.003 0.022,-0.004 a 0.169,0.169 0 0 1 0.016,-10e-4 q 0.037,0 0.072,0.015 L 5.192,11.334 A 0.215,0.215 0 0 0 5.166,11.325 Q 5.147,11.32 5.13,11.32 a 0.126,0.126 0 0 0 -0.012,0 q -0.014,0.002 -0.023,0.006 a 0.035,0.035 0 0 0 -10e-4,10e-4 0.029,0.029 0 0 0 -0.008,0.006 0.023,0.023 0 0 0 -0.005,0.016 0.03,0.03 0 0 0 10e-4,0.007 0.024,0.024 0 0 0 0.004,0.008 0.032,0.032 0 0 0 0.004,0.005 q 0.003,0.002 0.006,0.004 a 0.072,0.072 0 0 0 0.005,0.003 0.1,0.1 0 0 0 0.006,0.003 q 0.01,0.005 0.029,0.012 a 1.029,1.029 0 0 0 0.005,0.002 q 0.031,0.012 0.047,0.023 a 0.059,0.059 0 0 1 0.007,0.007 0.051,0.051 0 0 1 0.014,0.032 0.068,0.068 0 0 1 0,0.005 q 0,0.032 -0.023,0.049 a 0.081,0.081 0 0 1 -0.025,0.012 q -0.018,0.005 -0.042,0.005 -0.045,0 -0.07,-0.014 z m 0.482,0.01 -0.004,-0.03 H 5.525 A 0.077,0.077 0 0 1 5.468,11.525 0.116,0.116 0 0 1 5.454,11.526 0.104,0.104 0 0 1 5.424,11.522 0.079,0.079 0 0 1 5.385,11.496 0.101,0.101 0 0 1 5.367,11.462 Q 5.362,11.447 5.361,11.43 A 0.223,0.223 0 0 1 5.36,11.409 0.204,0.204 0 0 1 5.362,11.375 q 0.004,-0.018 0.01,-0.033 a 0.097,0.097 0 0 1 0.013,-0.02 0.081,0.081 0 0 1 0.057,-0.031 0.116,0.116 0 0 1 0.012,0 0.101,0.101 0 0 1 0.03,0.004 0.078,0.078 0 0 1 0.041,0.029 H 5.527 L 5.526,11.308 5.525,11.292 V 11.2 h 0.034 v 0.322 z m 0.281,-0.129 v 0.022 H 5.655 a 0.138,0.138 0 0 0 0.003,0.023 Q 5.66,11.45 5.665,11.46 a 0.065,0.065 0 0 0 0.01,0.015 0.062,0.062 0 0 0 0.033,0.019 0.095,0.095 0 0 0 0.021,0.002 0.182,0.182 0 0 0 0.068,-0.013 0.208,0.208 0 0 0 0.005,-0.002 v 0.03 A 0.206,0.206 0 0 1 5.783,11.519 0.158,0.158 0 0 1 5.767,11.523 0.144,0.144 0 0 1 5.753,11.525 Q 5.742,11.526 5.728,11.526 A 0.134,0.134 0 0 1 5.695,11.522 0.095,0.095 0 0 1 5.649,11.495 0.101,0.101 0 0 1 5.625,11.451 Q 5.62,11.433 5.62,11.41 a 0.18,0.18 0 0 1 0.003,-0.035 q 0.006,-0.031 0.024,-0.052 a 0.088,0.088 0 0 1 0.064,-0.032 0.122,0.122 0 0 1 0.008,0 q 0.043,0 0.068,0.028 a 0.096,0.096 0 0 1 0.021,0.044 0.14,0.14 0 0 1 0.004,0.03 z M 5.3,11.295 v 0.227 H 5.265 v -0.227 z m 0.225,0.121 V 11.409 A 0.229,0.229 0 0 0 5.524,11.385 Q 5.521,11.355 5.509,11.34 A 0.05,0.05 0 0 0 5.484,11.323 Q 5.475,11.321 5.465,11.32 a 0.111,0.111 0 0 0 -0.007,0 q -0.03,0 -0.047,0.023 -0.011,0.018 -0.014,0.046 a 0.192,0.192 0 0 0 -0.002,0.021 0.19,0.19 0 0 0 0.002,0.024 q 10e-4,0.011 0.004,0.021 a 0.072,0.072 0 0 0 0.01,0.02 0.052,0.052 0 0 0 0.038,0.022 0.077,0.077 0 0 0 0.009,0 q 0.023,0 0.037,-0.007 a 0.046,0.046 0 0 0 0.014,-0.012 0.057,0.057 0 0 0 0.01,-0.017 q 0.005,-0.016 0.006,-0.039 a 0.218,0.218 0 0 0 0,-0.006 z M 5.656,11.387 H 5.775 A 0.117,0.117 0 0 0 5.773,11.368 Q 5.772,11.358 5.768,11.35 A 0.053,0.053 0 0 0 5.76,11.337 0.047,0.047 0 0 0 5.732,11.321 0.071,0.071 0 0 0 5.719,11.32 0.068,0.068 0 0 0 5.699,11.322 0.052,0.052 0 0 0 5.675,11.338 q -0.014,0.016 -0.018,0.043 a 0.13,0.13 0 0 0 -0.001,0.006 z m -0.393,-0.16 a 0.038,0.038 0 0 0 -0.001,0.007 0.041,0.041 0 0 0 0,0.003 q 0.001,0.009 0.006,0.014 a 0.019,0.019 0 0 0 0.007,0.004 0.022,0.022 0 0 0 0.008,0.002 0.02,0.02 0 0 0 0.014,-0.006 q 0.006,-0.006 0.006,-0.017 a 0.039,0.039 0 0 0 0,-0.004 Q 5.302,11.221 5.297,11.216 a 0.02,0.02 0 0 0 -0.014,-0.005 0.026,0.026 0 0 0 -0.002,0 0.02,0.02 0 0 0 -0.013,0.005 0.016,0.016 0 0 0 -0.003,0.005 q -0.002,0.003 -0.002,0.006 z"
       id="side5_labelLayer"
       stroke="#777777"
       fill="#777777"
       style="fill:#777777;stroke:#777777"
       vector-effect="non-scaling-stroke" />
  </g>
  <path
     d="m 3.9816646,5.8324348 0.8265744,-3.31e-4 0.00318,-0.114747 -0.8291379,0.0037 z m -0.00301,3.577818 0.8265744,-3.31e-4 0.00318,-0.114747 -0.8291379,0.0037 z m -2.245,-0.0054 0.8265744,-3.31e-4 0.00318,-0.114747 -0.8291379,0.0037 z"
     id="bottom_outsideCutPath-70-5"
     stroke="#FF0000"
     stroke-width="0.1"
     style="fill:none;stroke:#ff0000;stroke-width:0.1"
     vector-effect="non-scaling-stroke"
     sodipodi:nodetypes="ccccccccccccccc" />
</svg>
